HIERARCHY
ROOT Hips
{
	OFFSET 0.000000 0.000000 0.000000
	CHANNELS 6 Xposition Yposition Zposition Zrotation Yrotation Xrotation 
	JOINT LHipJoint
	{
		OFFSET 0.000000 0.000000 0.000000
		CHANNELS 3 Zrotation Yrotation Xrotation
		JOINT LeftUpLeg
		{
			OFFSET 1.363060 -1.794630 0.839290
			CHANNELS 3 Zrotation Yrotation Xrotation
			JOINT LeftLeg
			{
				OFFSET 2.448110 -6.726130 0.000000
				CHANNELS 3 Zrotation Yrotation Xrotation
				JOINT LeftFoot
				{
					OFFSET 2.562200 -7.039590 0.000000
					CHANNELS 3 Zrotation Yrotation Xrotation
					JOINT LeftToeBase
					{
						OFFSET 0.157640 -0.433110 2.322550
						CHANNELS 3 Zrotation Yrotation Xrotation
						End Site
						{
							OFFSET 0.000000 0.000000 0.000000
						}
					}
				}
			}
		}
	}
	JOINT RHipJoint
	{
		OFFSET 0.000000 0.000000 0.000000
		CHANNELS 3 Zrotation Yrotation Xrotation
		JOINT RightUpLeg
		{
			OFFSET -1.305520 -1.794630 0.839290
			CHANNELS 3 Zrotation Yrotation Xrotation
			JOINT RightLeg
			{
				OFFSET -2.542530 -6.985550 0.000000
				CHANNELS 3 Zrotation Yrotation Xrotation
				JOINT RightFoot
				{
					OFFSET -2.568260 -7.056230 0.000000
					CHANNELS 3 Zrotation Yrotation Xrotation
					JOINT RightToeBase
					{
						OFFSET -0.164730 -0.452590 2.363150
						CHANNELS 3 Zrotation Yrotation Xrotation
						End Site
						{
							OFFSET 0.000000 0.000000 0.000000
						}
					}
				}
			}
		}
	}
}
MOTION
Frames: 14
Frame Time: 0.008333
-19.075738 16.259708 -2.411194 -58.195866 86.525194 -36.610638 -12.587659 4.044457 -0.022858 -0.027038 7.432962 3.876453 -0.073089 0.813974 16.951700 1.080917 6.964240 13.109271 2.128201 0.000000 -86.585300 6.801995 -1.455993 6.405773 7.765053 13.055935 -55.850716 2.369243 -1.232849 22.364971 -0.950373 -4.918846 4.553807 -2.215400 0.000000 -37.192800
-18.867475 16.292432 -2.373721 -60.570482 86.418150 -38.971857 -12.763168 4.009362 0.042676 0.398562 7.451756 2.807710 0.158373 0.925162 19.282957 1.229334 7.331793 15.416067 2.414800 0.000000 -84.556900 6.688440 -1.579433 6.359852 8.288526 13.198980 -55.456460 2.343119 -1.331867 23.354404 -1.006876 -5.069525 4.053360 -2.195500 -0.000001 -35.901600
-18.661756 16.326707 -2.334241 -62.499404 86.310976 -40.903879 -12.916177 3.950271 0.094801 0.776194 7.551647 1.618759 0.363461 1.012350 21.765203 1.394139 7.745616 17.516211 2.712700 0.000000 -81.477200 6.600798 -1.684597 6.309344 8.806151 13.289716 -54.949215 2.341832 -1.409717 24.194097 -1.033650 -5.055304 3.401208 -2.110999 0.000000 -34.480500
-18.459126 16.362543 -2.292723 -63.949893 86.208069 -42.369043 -13.038426 3.867685 0.131900 1.085298 7.718534 0.318872 0.533719 1.078738 24.372776 1.569206 8.260863 19.301358 3.042600 -0.000000 -77.430200 6.542119 -1.771579 6.258641 9.302429 13.333508 -54.345052 2.360718 -1.466871 24.882028 -1.036620 -4.907556 2.631560 -1.978599 -0.000000 -32.987500
-18.259848 16.400020 -2.249705 -64.990531 86.106004 -43.431958 -13.130368 3.762408 0.151038 1.326068 7.946899 -1.084571 0.666277 1.131107 27.077984 1.747376 8.918942 20.686354 3.422199 0.000000 -72.702200 6.507062 -1.844935 6.213171 9.775469 13.347184 -53.652825 2.396242 -1.502443 25.406680 -1.024615 -4.675029 1.790093 -1.820800 0.000000 -31.500100
-18.064272 16.439197 -2.205640 -65.637260 86.001755 -44.104651 -13.191895 3.637945 0.150623 1.494199 8.222790 -2.581076 0.762597 1.178207 29.848160 1.923284 9.752377 21.618979 3.864200 -0.000000 -67.658800 6.492186 -1.906992 6.175955 10.221769 13.343199 -52.883575 2.444001 -1.516437 25.764085 -1.005840 -4.403327 0.921227 -1.656700 -0.000001 -30.107799
-17.872427 16.480172 -2.161045 -65.902852 85.891228 -44.397944 -13.224337 3.498529 0.130390 1.587473 8.528172 -4.157699 0.827871 1.228556 32.649564 2.093776 10.771983 22.078471 4.366700 0.000001 -62.661200 6.493979 -1.959265 6.148005 10.639664 13.332072 -52.046774 2.499689 -1.509426 25.954934 -0.987436 -4.133156 0.064798 -1.501100 0.000000 -28.891500
-17.684657 16.523025 -2.116349 -65.782790 85.771714 -44.306688 -13.228898 3.348779 0.092046 1.601818 8.839049 -5.797415 0.869476 1.288547 35.444068 2.258838 11.972492 22.081293 4.916401 -0.000000 -58.109899 6.510624 -2.001669 6.127543 11.027086 13.318518 -51.149530 2.559276 -1.482629 25.985145 -0.974330 -3.894112 -0.748027 -1.362700 -0.000001 -27.907301
-17.500904 16.567752 -2.071930 -65.295685 85.640124 -43.850654 -13.208487 3.193053 0.036790 1.540035 9.139438 -7.486579 0.893859 1.363163 38.207203 2.416805 13.306979 21.630725 5.470000 0.000000 -54.009600 6.539712 -2.034268 6.111824 11.384871 13.305733 -50.195092 2.619828 -1.437435 25.862970 -0.969474 -3.705542 -1.496319 -1.245500 -0.000000 -27.172400
-17.321313 16.614328 -2.028084 -64.476431 85.495604 -43.066193 -13.166335 3.034754 -0.030206 1.403521 9.402852 -9.205297 0.908507 1.453016 40.896903 2.570475 14.737164 20.792898 5.994000 -0.000000 -50.631900 6.579199 -2.056660 6.096976 11.712832 13.293384 -49.184468 2.679296 -1.375151 25.596997 -0.973776 -3.575897 -2.168192 -1.149700 -0.000001 -26.666300
-17.145618 16.662572 -1.984951 -63.352830 85.339169 -41.984574 -13.105105 2.877679 -0.105769 1.196722 9.615188 -10.938183 0.917693 1.558156 43.486558 2.719006 16.195679 19.606383 6.437000 -0.000000 -47.985800 6.628504 -2.067661 6.078095 12.010244 13.277066 -48.116594 2.736326 -1.297500 25.200377 -0.985863 -3.500891 -2.761867 -1.072300 -0.000000 -26.340700
-16.973474 16.712257 -1.942539 -61.970622 85.173519 -40.654706 -13.027919 2.725100 -0.185644 0.926007 9.763844 -12.670053 0.924447 1.676660 45.948056 2.860932 17.613655 18.122341 6.752701 0.000000 -45.936700 6.686753 -2.066660 6.050869 12.276039 13.251228 -46.989156 2.790447 -1.205920 24.684790 -1.003111 -3.469133 -3.281084 -1.009400 -0.000000 -26.130300
-16.804780 16.763049 -1.900751 -60.381319 85.003051 -39.130973 -12.937736 2.579658 -0.265098 0.598628 9.839311 -14.387883 0.930374 1.805212 48.254600 2.993986 18.927214 16.402612 6.907900 0.000000 -44.382200 6.753161 -2.053516 6.012024 12.508629 13.210306 -45.799811 2.841661 -1.101667 24.060832 -1.022146 -3.464811 -3.732535 -0.956600 0.000000 -25.967500
-16.638786 16.814601 -1.859306 -58.584781 84.833030 -37.416999 -12.835353 2.444885 -0.340399 0.218118 9.837512 -16.077938 0.935124 1.940338 50.381644 3.114662 20.081021 14.506498 6.883699 0.000000 -43.115999 6.829512 -2.026928 5.957572 12.704056 13.144225 -44.546910 2.889995 -0.986479 23.343561 -1.038303 -3.464382 -4.127750 -0.908700 0.000000 -25.780400
